<svg xmlns="http://www.w3.org/2000/svg" viewBox="0 0 768 768" role="img" aria-label="HuddleWay logo">
  <defs>
    <linearGradient id="facet-blue" x1="0" y1="0" x2="1" y2="1">
      <stop offset="0" stop-color="#1f7de3" />
      <stop offset="1" stop-color="#1473d7" />
    </linearGradient>
    <linearGradient id="facet-navy" x1="0" y1="0" x2="1" y2="1">
      <stop offset="0" stop-color="#144d91" />
      <stop offset="1" stop-color="#0b2f63" />
    </linearGradient>
    <linearGradient id="facet-deep" x1="0" y1="0" x2="1" y2="1">
      <stop offset="0" stop-color="#0a2d5b" />
      <stop offset="1" stop-color="#071f46" />
    </linearGradient>
  </defs>

  <polygon points="384,84 676,220 676,555 384,676 92,555 92,220" fill="#0f4787" />
  <polygon points="384,432 676,555 384,676 92,555" fill="#08244d" />
  <polygon points="92,220 184,262 184,555 92,555" fill="#ffffff" />
  <polygon points="184,262 286,308 286,470 184,418" fill="url(#facet-blue)" />
  <polygon points="184,418 286,470 286,635 184,596" fill="url(#facet-navy)" />
  <polygon points="286,170 384,84 384,432 286,474" fill="#ffffff" />
  <polygon points="384,84 482,170 482,474 384,432" fill="#d9e4f4" />
  <polygon points="482,170 584,220 584,418 482,344" fill="#136fcf" opacity="0.92" />
  <polygon points="584,220 676,262 676,555 584,514" fill="#d1dced" />
  <polygon points="510,380 584,514 530,556 476,514 434,474 384,432 384,474 286,516 286,170 384,84 384,432 510,380" fill="#ffffff" />
  <polygon points="286,516 384,474 530,556 584,514 676,555 384,676 286,635" fill="url(#facet-deep)" />
  <polygon points="476,514 530,556 500,570 448,548" fill="#0d3c75" />
  <polygon points="434,474 476,514 448,548 408,536" fill="#0f4d93" />
  <polygon points="584,220 584,418 552,382 552,236" fill="#1f89f2" opacity="0.9" />
</svg>